<svg width="33" height="22" viewBox="0 0 33 22" fill="none" xmlns="http://www.w3.org/2000/svg">
<g clip-path="url(#clip0_2298_67383)">
<path d="M31 0.25H2C1.0335 0.25 0.25 1.0335 0.25 2V20C0.25 20.9665 1.0335 21.75 2 21.75H31C31.9665 21.75 32.75 20.9665 32.75 20V2C32.75 1.0335 31.9665 0.25 31 0.25Z" fill="white"/>
<path fill-rule="evenodd" clip-rule="evenodd" d="M6 0.5H27V11.8365V14.906V21.5H6V10.8133V9.3515V0.5Z" fill="#016FD0"/>
<path fill-rule="evenodd" clip-rule="evenodd" d="M10.0764 15.1335V11.8365H13.567L13.9415 12.3242L14.3289 11.8365H27V14.906C27 14.906 26.6687 15.13 26.2849 15.1335H19.2685L18.8462 14.6143V15.1335H17.4625V14.2468C17.4625 14.2468 17.2735 14.3705 16.8652 14.3705H16.3939V15.1335H14.2985L13.924 14.6353L13.5437 15.1335H10.0752H10.0764Z" fill="white"/>
<path fill-rule="evenodd" clip-rule="evenodd" d="M6 9.35152L6.7875 7.51636H8.149L8.59583 8.54419V7.51636H10.2887L10.5547 8.25952L10.8125 7.51636H18.4087V7.88969C18.4087 7.88969 18.8077 7.51636 19.4645 7.51636L21.9297 7.52452L22.3683 8.53952V7.51636H23.7847L24.1743 8.09969V7.51636H25.6035V10.8134H24.1743L23.801 10.2289V10.8134H21.7197L21.5108 10.2942H20.952L20.7467 10.8134H19.335C18.7703 10.8134 18.4087 10.447 18.4087 10.447V10.8134H16.2807L15.8583 10.2942V10.8134H7.94717L7.73833 10.2942H7.18067L6.973 10.8134H6V9.35152Z" fill="white"/>
<path fill-rule="evenodd" clip-rule="evenodd" d="M7.06631 7.92236L6.00464 10.391H6.69531L6.89131 9.89636H8.02997L8.22481 10.391H8.93181L7.87131 7.92236H7.06631ZM7.45947 8.49636L7.80714 9.3597H7.11181L7.45947 8.49636Z" fill="#016FD0"/>
<path fill-rule="evenodd" clip-rule="evenodd" d="M9.00415 10.391V7.92236L9.98648 7.92586L10.5582 9.5172L11.1158 7.92236H12.09V10.391H11.4728V8.5722L10.8195 10.391H10.2781L9.62132 8.5722V10.391H9.00415Z" fill="#016FD0"/>
<path fill-rule="evenodd" clip-rule="evenodd" d="M12.5123 10.391V7.92236H14.5272V8.4742H13.1365V8.89653H14.4945V9.41686H13.1365V9.85553H14.5272V10.391H12.5123Z" fill="#016FD0"/>
<path fill-rule="evenodd" clip-rule="evenodd" d="M14.8842 7.92236V10.391H15.5014V9.5137H15.7616L16.5012 10.391H17.2549L16.4429 9.48103C16.7766 9.45303 17.1196 9.1672 17.1196 8.7227C17.1196 8.20353 16.7112 7.92236 16.2562 7.92236H14.8831H14.8842ZM15.5014 8.4742H16.2072C16.3764 8.4742 16.5001 8.60603 16.5001 8.73436C16.5001 8.89886 16.3402 8.99453 16.2166 8.99453H15.5014V8.47536V8.4742Z" fill="#016FD0"/>
<path fill-rule="evenodd" clip-rule="evenodd" d="M18.0027 10.391H17.3727V7.92236H18.0027V10.391Z" fill="#016FD0"/>
<path fill-rule="evenodd" clip-rule="evenodd" d="M19.4961 10.391H19.3596C18.7016 10.391 18.3014 9.87303 18.3014 9.1672C18.3014 8.46136 18.6969 7.92236 19.5276 7.92236H20.2101V8.50686H19.5031C19.1659 8.50686 18.9267 8.77053 18.9267 9.17303C18.9267 9.65136 19.1997 9.85203 19.5929 9.85203H19.7551L19.4949 10.391H19.4961Z" fill="#016FD0"/>
<path fill-rule="evenodd" clip-rule="evenodd" d="M20.84 7.92236L19.7783 10.391H20.469L20.665 9.89636H21.8037L21.9985 10.391H22.7055L21.645 7.92236H20.84ZM21.2332 8.49636L21.5808 9.3597H20.8855L21.2332 8.49636Z" fill="#016FD0"/>
<path fill-rule="evenodd" clip-rule="evenodd" d="M22.7778 10.391V7.92236H23.5618L24.564 9.47286V7.92236H25.1812V10.391H24.4217L23.395 8.7997V10.391H22.7778Z" fill="#016FD0"/>
<path fill-rule="evenodd" clip-rule="evenodd" d="M10.4987 14.7112V12.2425H12.5123V12.7943H11.1228V13.2167H12.4808V13.737H11.1228V14.1757H12.5123V14.7112H10.4987Z" fill="#016FD0"/>
<path fill-rule="evenodd" clip-rule="evenodd" d="M20.3676 14.7112V12.2425H22.3812V12.7943H20.9906V13.2167H22.3416V13.737H20.9906V14.1757H22.3812V14.7112H20.3676Z" fill="#016FD0"/>
<path fill-rule="evenodd" clip-rule="evenodd" d="M12.5905 14.7112L13.5716 13.492L12.5671 12.2425H13.3453L13.9426 13.0148L14.5435 12.2425H15.2901L14.2996 13.4768L15.282 14.7112H14.5038L13.924 13.9505L13.357 14.7112H12.5905Z" fill="#016FD0"/>
<path fill-rule="evenodd" clip-rule="evenodd" d="M15.3555 12.2425V14.7112H15.989V13.9318H16.6388C17.1883 13.9318 17.6048 13.6402 17.6048 13.0732C17.6048 12.603 17.2781 12.2425 16.7181 12.2425H15.3555ZM15.989 12.8013H16.6726C16.85 12.8013 16.9771 12.9098 16.9771 13.086C16.9771 13.2505 16.8511 13.3707 16.6703 13.3707H15.9878V12.8025L15.989 12.8013Z" fill="#016FD0"/>
<path fill-rule="evenodd" clip-rule="evenodd" d="M17.872 12.2425V14.7112H18.4892V13.8338H18.7493L19.489 14.7112H20.2427L19.4307 13.8012C19.7643 13.7732 20.1073 13.4873 20.1073 13.0428C20.1073 12.5237 19.699 12.2425 19.244 12.2425H17.8708H17.872ZM18.4892 12.7943H19.195C19.3642 12.7943 19.4878 12.9262 19.4878 13.0545C19.4878 13.219 19.328 13.3147 19.2043 13.3147H18.4892V12.7955V12.7943Z" fill="#016FD0"/>
<path fill-rule="evenodd" clip-rule="evenodd" d="M22.667 14.7112V14.1757H23.9025C24.0856 14.1757 24.165 14.0765 24.165 13.9692C24.165 13.8618 24.0856 13.7603 23.9025 13.7603H23.3448C22.8595 13.7603 22.59 13.4652 22.59 13.0207C22.59 12.6252 22.8373 12.2437 23.5583 12.2437H24.76L24.4998 12.799H23.4603C23.262 12.799 23.2001 12.9028 23.2001 13.0032C23.2001 13.1035 23.276 13.2178 23.4276 13.2178H24.0121C24.5535 13.2178 24.788 13.5247 24.788 13.926C24.788 14.3577 24.5266 14.7112 23.983 14.7112H22.6681H22.667Z" fill="#016FD0"/>
<path fill-rule="evenodd" clip-rule="evenodd" d="M24.9316 14.7112V14.1757H26.1146C26.2977 14.1757 26.3771 14.0765 26.3771 13.9692C26.3771 13.8618 26.2977 13.7603 26.1146 13.7603H25.6082C25.1229 13.7603 24.8534 13.4652 24.8534 13.0207C24.8534 12.6252 25.1007 12.2437 25.8217 12.2437H27.0001L26.7399 12.799H25.7249C25.5266 12.799 25.4647 12.9028 25.4647 13.0032C25.4647 13.1035 25.5406 13.2178 25.6922 13.2178H26.2242C26.7656 13.2178 27.0001 13.5247 27.0001 13.926C27.0001 14.3577 26.7387 14.7112 26.1951 14.7112H24.9316Z" fill="#016FD0"/>
<path d="M31 0.25H2C1.0335 0.25 0.25 1.0335 0.25 2V20C0.25 20.9665 1.0335 21.75 2 21.75H31C31.9665 21.75 32.75 20.9665 32.75 20V2C32.75 1.0335 31.9665 0.25 31 0.25Z" stroke="#A9AAA8" stroke-width="0.5"/>
</g>
<defs>
<clipPath id="clip0_2298_67383">
<rect width="33" height="22" fill="white"/>
</clipPath>
</defs>
</svg>
