<svg width="22" height="18" viewBox="0 0 22 18" fill="none" xmlns="http://www.w3.org/2000/svg">
<path fill-rule="evenodd" clip-rule="evenodd" d="M2.75 14.5682V11.3864H1.375C0.616917 11.3864 0 10.851 0 10.1932V1.44318C0 0.785341 0.616917 0.25 1.375 0.25H13.2917C14.0498 0.25 14.6667 0.785341 14.6667 1.44318V5.02114H12.8333V1.84091H1.83333V9.79545H4.58333V11.3864L7.02717 9.79545H8.25V11.3864H7.6395L2.75 14.5682ZM19.25 17.75L14.3605 14.5682H11.4583C10.7002 14.5682 10.0833 14.0328 10.0833 13.375V7.80682C10.0833 7.14898 10.7002 6.61364 11.4583 6.61364H20.625C21.3831 6.61364 22 7.14898 22 7.80682V13.375C22 14.0328 21.3831 14.5682 20.625 14.5682H19.25V17.75ZM11.9167 12.9773H14.9728L17.4167 14.5682V12.9773H20.1667V8.20455H11.9167V12.9773Z" fill="#ffffff"/>
</svg>
