<svg xmlns="http://www.w3.org/2000/svg" width="24" height="18" viewBox="0 0 24 18">
    <path fill="#484848" fill-rule="evenodd" d="M20.15 11.32a.602.602 0 0 1-.13.017l-3.424.053c-.269.018-.352-.24-.252-.775.07-.375.174-.655.31-.838a.551.551 0 0 1 .359-.21l3.525-.57c.586-.181.875.113.866.884-.008.751-.426 1.23-1.253 1.439m-12.747.07l-3.423-.053a.603.603 0 0 1-.133-.017c-.826-.209-1.244-.688-1.253-1.44-.009-.77.28-1.064.867-.883l3.525.57c.138.023.27.092.358.21.137.183.24.463.31.838.1.535.016.793-.25.775M4.928 5.153l1.967-2.6a.537.537 0 0 1 .435-.224l9.337.001c.111 0 .22.036.312.103a.596.596 0 0 1 .124.12l1.967 2.6c.3.398.04.995-.435.995H5.364c-.475 0-.736-.597-.435-.995M24 4.324c0-.562-.242-.843-.729-.843h-2.503a.586.586 0 0 1-.465-.237L18.047.281a.6.6 0 0 0-.11-.112L17.88.125A.568.568 0 0 0 17.527 0H6.472a.57.57 0 0 0-.353.125l-.057.044a.65.65 0 0 0-.11.112L3.695 3.244a.583.583 0 0 1-.463.237H.727c-.485 0-.727.281-.727.843 0 .563.46 1.07 1.381 1.523l.225.11L.6 7.384a.685.685 0 0 0-.123.396v9.675c0 .163.045.295.138.395.092.1.213.149.364.149h4.018c.134 0 .25-.05.35-.15.101-.1.152-.231.152-.394v-.953c0-.36.269-.652.6-.652h11.8c.332 0 .602.292.602.652v.953c0 .163.05.295.15.395.1.1.218.149.352.149h4.018c.15 0 .272-.05.364-.15a.558.558 0 0 0 .138-.394V7.781a.685.685 0 0 0-.124-.396l-1.006-1.429.225-.109C23.54 5.394 24 4.887 24 4.324"/>
</svg>
