<svg width="19" height="23" viewBox="0 0 19 23" fill="none" xmlns="http://www.w3.org/2000/svg">
<path d="M16.1617 4.4803C14.9882 3.69527 14.1415 2.43879 13.8772 0.974997C13.8202 0.658817 13.7885 0.333095 13.7885 0H10.043L10.0367 15.4009C9.9741 17.1258 8.59048 18.5098 6.89445 18.5098C6.36729 18.5098 5.871 18.3749 5.43389 18.1385C4.43157 17.5977 3.74547 16.5199 3.74547 15.2799C3.74547 13.4986 5.15826 12.0491 6.89403 12.0491C7.21827 12.0491 7.52898 12.1042 7.82278 12.1983V8.27533C7.51841 8.2324 7.20939 8.20637 6.89403 8.20637C3.09276 8.20637 0 11.379 0 15.2799C0 17.6727 1.16507 19.7905 2.94353 21.0709C4.06294 21.878 5.42543 22.3529 6.89445 22.3529C10.6961 22.3529 13.7885 19.1799 13.7885 15.2799V7.46992C15.2575 8.55161 17.0575 9.18918 19 9.18918V5.346C17.9537 5.346 16.9793 5.02722 16.1617 4.4803Z" fill="white"/>
</svg>
