<?xml version="1.0" encoding="UTF-8"?>
<svg width="215px" height="54px" viewBox="0 0 215 54" version="1.1" xmlns="http://www.w3.org/2000/svg" xmlns:xlink="http://www.w3.org/1999/xlink">
    <!-- Generator: Sketch 63.1 (92452) - https://sketch.com -->
    <title>logoautozonemx-d</title>
    <desc>Created with Sketch.</desc>
    <g id="logoautozonemx-d" stroke="none" stroke-width="1" fill="none" fill-rule="evenodd">
        <g id="Logo-AZ">
            <g>
                <polygon id="Path" fill="#000000" fill-rule="nonzero" points="112.533333 43.9133333 114.9 43.9133333 114.473333 51.18 114.473333 51.18 117.14 43.9133333 119.506667 43.9133333 115.413333 53.3333333 112.6 53.3333333"></polygon>
                <path d="M121.513333,43.9133333 L124.28,43.9133333 L124.62,53.3133333 L122.333333,53.3133333 L122.373333,51.52 L120.12,51.52 L119.406667,53.3333333 L117.12,53.3333333 L121.513333,43.9133333 Z M122.493333,45.62 L122.493333,45.62 L120.826667,49.8066667 L122.433333,49.8066667 L122.493333,45.62 Z" id="Shape" fill="#000000" fill-rule="nonzero"></path>
                <path d="M127.78,50.44 L127.706667,50.7733333 C127.553333,51.48 127.64,52.02 128.373333,52.02 C129.011539,52.0168314 129.545446,51.5345929 129.613333,50.9 C130.046667,48.9 125.76,50.0066667 126.513333,46.4933333 C126.826667,44.9933333 127.9,43.7266667 130.18,43.7266667 C132.46,43.7266667 132.94,44.8466667 132.633333,46.2933333 L132.586667,46.52 L130.453333,46.52 C130.543158,46.1972443 130.543158,45.8560891 130.453333,45.5333333 C130.366667,45.3066667 130.18,45.2 129.853333,45.2 C129.278117,45.1982121 128.798651,45.6399018 128.753333,46.2133333 C128.34,48.2133333 132.586667,47.1866667 131.886667,50.5066667 C131.433333,52.64 130.06,53.4933333 128.033333,53.4933333 C126.426667,53.4933333 125.046667,53.0066667 125.46,51.0466667 L125.593333,50.44 L127.78,50.44 Z" id="Path" fill="#000000" fill-rule="nonzero"></path>
                <path d="M139.566667,43.9133333 L142.333333,43.9133333 L142.666667,53.3333333 L140.373333,53.3333333 L140.413333,51.54 L138.16,51.54 L137.466667,53.3333333 L135.173333,53.3333333 L139.566667,43.9133333 Z M140.546667,45.62 L140.546667,45.62 L138.88,49.8066667 L140.486667,49.8066667 L140.546667,45.62 Z" id="Shape" fill="#000000" fill-rule="nonzero"></path>
                <polygon id="Path" fill="#000000" fill-rule="nonzero" points="148.813333 43.9133333 151.026667 43.9133333 149.406667 51.52 152.606667 51.52 152.226667 53.3333333 146.813333 53.3333333"></polygon>
                <path d="M156.666667,43.9133333 L159.426667,43.9133333 L159.773333,53.3133333 L157.466667,53.3133333 L157.506667,51.52 L155.253333,51.52 L154.546667,53.3333333 L152.253333,53.3333333 L156.666667,43.9133333 Z M157.64,45.62 L157.64,45.62 L155.973333,49.8066667 L157.58,49.8066667 L157.64,45.62 Z" id="Shape" fill="#000000" fill-rule="nonzero"></path>
                <path d="M166.34,50.44 L166.266667,50.7733333 C166.113333,51.48 166.2,52.02 166.933333,52.02 C167.571539,52.0168314 168.105446,51.5345929 168.173333,50.9 C168.606667,48.9 164.32,50.0066667 165.073333,46.4933333 C165.386667,44.9933333 166.46,43.7266667 168.74,43.7266667 C171.02,43.7266667 171.5,44.8466667 171.193333,46.2933333 L171.146667,46.52 L169.013333,46.52 C169.103158,46.1972443 169.103158,45.8560891 169.013333,45.5333333 C168.933333,45.3066667 168.74,45.2 168.413333,45.2 C167.838117,45.1982121 167.358651,45.6399018 167.313333,46.2133333 C166.9,48.2133333 171.146667,47.1866667 170.446667,50.5066667 C169.993333,52.64 168.62,53.4933333 166.593333,53.4933333 C164.986667,53.4933333 163.606667,53.0066667 164.02,51.0466667 L164.153333,50.44 L166.34,50.44 Z" id="Path" fill="#000000" fill-rule="nonzero"></path>
                <polygon id="Path" fill="#000000" fill-rule="nonzero" points="172.966667 43.9133333 178.406667 43.9133333 178 45.7 174.8 45.7 174.4 47.5866667 177.426667 47.5866667 177.046667 49.3733333 174 49.3733333 173.54 51.52 176.913333 51.52 176.553333 53.3333333 170.966667 53.3333333"></polygon>
                <path d="M182.92,46.7666667 C183.053333,46.16 183.186667,45.2 182.373333,45.2 C181.56,45.2 181.16,46.12 180.633333,48.6266667 C180.106667,51.1333333 180.04,52.02 180.92,52.02 C181.673333,52.02 182.08,51.3533333 182.353333,50.02 L182.42,49.72 L181.38,49.72 L181.693333,48.24 L184.786667,48.24 L183.713333,53.3333333 L182.2,53.3333333 L182.34,52.44 L182.34,52.44 C181.836511,53.180513 180.972088,53.5910501 180.08,53.5133333 C177.726667,53.5133333 177.7,51.7666667 178.326667,48.8466667 C178.993333,45.7666667 179.62,43.7666667 182.753333,43.7666667 C185.606667,43.7666667 185.306667,45.7666667 185.08,46.8066667 L182.92,46.7666667 Z" id="Path" fill="#000000" fill-rule="nonzero"></path>
                <path d="M191.606667,50.2066667 C191.213333,52.0466667 190.38,53.4933333 187.813333,53.4933333 C185.246667,53.4933333 185.026667,52.0466667 185.42,50.2066667 L186.753333,43.9133333 L188.966667,43.9133333 L187.493333,50.8466667 C187.333333,51.5866667 187.533333,52.02 188.126667,52.02 C188.72,52.02 189.1,51.5866667 189.26,50.8466667 L190.733333,43.9133333 L192.946667,43.9133333 L191.606667,50.2066667 Z" id="Path" fill="#000000" fill-rule="nonzero"></path>
                <path d="M194.2,43.9133333 L197.913333,43.9133333 C199.793333,43.9133333 200.193333,45.0733333 199.913333,46.36 C199.793763,47.4913288 198.959498,48.4170941 197.846667,48.6533333 L197.846667,48.6533333 C199.213333,48.8466667 199.1,49.7333333 198.86,50.9933333 C198.506667,52.8533333 198.533333,53.0333333 198.82,53.1666667 L198.82,53.2866667 L196.44,53.2866667 C196.348477,52.6445362 196.405495,51.9899677 196.606667,51.3733333 C196.953333,49.7466667 196.806667,49.3733333 196.106667,49.3733333 L195.26,49.3733333 L194.413333,53.3333333 L192.2,53.3333333 L194.2,43.9133333 Z M195.566667,47.8733333 L196.233333,47.8733333 C196.940894,47.8838649 197.546133,47.3671282 197.646667,46.6666667 C197.793333,45.96 197.646667,45.4866667 196.753333,45.4866667 L196.086667,45.4866667 L195.566667,47.8733333 Z" id="Shape" fill="#000000" fill-rule="nonzero"></path>
                <path d="M203.493333,43.9133333 L206.26,43.9133333 L206.606667,53.3133333 L204.313333,53.3133333 L204.353333,51.52 L202.1,51.52 L201.393333,53.3333333 L199.1,53.3333333 L203.493333,43.9133333 Z M204.473333,45.62 L204.473333,45.62 L202.806667,49.8066667 L204.413333,49.8066667 L204.473333,45.62 Z" id="Shape" fill="#000000" fill-rule="nonzero"></path>
                <path d="M209.92,47.4266667 C210.847907,47.4119944 211.58965,46.650475 211.579907,45.7225029 C211.570164,44.7945308 210.812595,44.0487532 209.884585,44.0535437 C208.956574,44.0583805 208.206783,44.8119767 208.206652,45.74 C208.204782,46.1925547 208.385559,46.6267298 208.708066,46.9442174 C209.030573,47.261705 209.467531,47.4356499 209.92,47.4266667 M208.546667,45.74 C208.568589,44.9916789 209.188488,44.4002762 209.937012,44.413568 C210.685536,44.4268597 211.284047,45.0398981 211.279414,45.7885257 C211.274728,46.5371533 210.668632,47.1426937 209.92,47.1466667 C209.546405,47.1584562 209.185015,47.0128874 208.9239,46.7454342 C208.662784,46.4779809 208.525923,46.1132054 208.546667,45.74 M209.553333,45.8666667 L209.893333,45.8666667 L210.413333,46.7133333 L210.74,46.7133333 L210.186667,45.8533333 C210.319932,45.8499277 210.446146,45.7927347 210.536566,45.6947792 C210.626987,45.5968237 210.673916,45.4664446 210.666667,45.3333333 C210.666667,44.9466667 210.44,44.78 210,44.78 L209.266667,44.78 L209.266667,46.72 L209.553333,46.72 L209.553333,45.8666667 Z M209.553333,45.6266667 L209.553333,45.0266667 L209.96,45.0266667 C210.166667,45.0266667 210.386667,45.0666667 210.386667,45.3066667 C210.386667,45.5466667 210.16,45.6266667 209.906667,45.6266667 L209.553333,45.6266667 Z" id="Shape" fill="#000000" fill-rule="nonzero"></path>
                <polygon id="Path" fill="#FFFFFF" fill-rule="nonzero" points="0 13.28 0 37.2533333 80.0733333 37.2533333 93.8333333 13.28"></polygon>
                <path d="M140.12,17.8466667 C138.089934,17.7789074 136.085387,18.3148454 134.36,19.3866667 L134.74,18.72 L131.56,18.72 L132.946667,16.3066667 L123.726667,16.3066667 L122.36,18.6666667 L108.36,18.6666667 C108.5,15.3333333 105.253333,13.1733333 100.446667,13.1733333 C98.2866667,13.1733333 93.0133333,13.6866667 90.4933333,18.4466667 L79.7266667,37.2533333 L98.3466667,37.2533333 L99.94,34.4866667 C100.1,34.8866667 101.386667,37.82 106.88,37.82 L106.88,37.82 C108.68,37.82 113.04,37.4066667 115.42,33.7133333 C115.6,34.3 116.706667,37.28 119.933333,37.28 L124.433333,37.28 L126.906667,32.98 C127.213333,36.3133333 129.76,37.6466667 132.473333,37.8 C138.333333,38.12 142.78,33.9866667 145.193333,27.38 C147.193333,21.9066667 144.886667,17.9933333 140.12,17.8666667" id="Path" fill="#FFFFFF" fill-rule="nonzero"></path>
                <path d="M205.206667,17.9 C201.873333,17.72 198.746667,19.2333333 196.313333,22.04 C196.253333,21.8466667 195.166667,17.7466667 190.1,18.7066667 L182.666667,18.7066667 L179.56,24.1066667 C179.766667,21.8733333 178.753333,17.8733333 173.56,17.8733333 C172.154355,17.8384566 170.758514,18.1162585 169.473333,18.6866667 L172.593333,13.2466667 L152.34,13.2466667 L147.96,20.8733333 L154.766667,20.8733333 L143.073333,29.4133333 L138.54,37.26 L158.826667,37.26 L160.74,33.9266667 C161.246667,35.6333333 162.226667,37.5733333 166.073333,37.8533333 C168.401207,37.9991467 170.71388,37.3888256 172.666667,36.1133333 L172,37.26 L189,37.26 L192,32.0533333 C191.686667,34.7733333 193.333333,37.64 197.4,37.8733333 C203.226667,38.2 206.946667,33.84 208.573333,30.4266667 C213.7,19.6266667 207.76,18.0333333 205.24,17.9" id="Path" fill="#FFFFFF" fill-rule="nonzero"></path>
                <path d="M57.0066667,14.56 L44.7,36 L53.2733333,36 L65.5866667,14.56 L57.0066667,14.56 Z M45.5733333,14.56 L33.26,36 L43.6733333,36 L56,14.56 L45.5733333,14.56 Z M66.84,14.56 L54.5333333,36 L61.0133333,36 L73.3333333,14.56 L66.84,14.56 Z M1.23333333,14.56 L1.23333333,36 L32.42,36 L44.7266667,14.56 L1.23333333,14.56 Z M86.28,14.56 L74,36 L75.5066667,36 L87.8066667,14.5866667 L86.28,14.56 Z M90.7333333,14.56 L78.4266667,36 L79.1533333,36 L91.4533333,14.5866667 L90.7333333,14.56 Z M83.6,14.56 L81.0466667,14.56 L68.7333333,36 L71.2866667,36 L75.72,28.3 L83.6,14.56 Z M74.8266667,14.56 L62.5133333,36 L66.6666667,36 L78.9866667,14.5866667 L74.8266667,14.56 Z" id="Shape" fill="#F48326" fill-rule="nonzero"></path>
                <path d="M115.96,20 L109.96,30.6133333 C109.473333,31.4866667 108.966667,31.74 108.193333,31.5866667 C107.226667,31.4 107.633333,30.66 107.913333,30.1533333 L113.82,20 L108,20 L101.333333,31.5733333 C100.153333,33.7533333 101.706667,35.9266667 105.56,36.4066667 C107.746667,36.68 112.34,36.4066667 114.506667,32.7133333 L114.506667,32.7133333 L121.78,20 L115.96,20 Z" id="Path" fill="#E1251B" fill-rule="nonzero"></path>
                <path d="M126.713333,24.5866667 L129.906667,24.5866667 L132.533333,20 L129.333333,20 L130.72,17.5866667 L124.466667,17.5866667 L116.953333,30.6666667 C116.226869,31.9243592 116.37954,33.5046374 117.333333,34.6 C117.954929,35.5307922 119.022527,36.0633234 120.14,36 L123.693333,36 L126.16,31.7066667 L123.493333,31.7066667 C123.286667,31.7066667 123.053333,31.7066667 122.966667,31.5466667 C122.916977,31.4318105 122.916977,31.3015228 122.966667,31.1866667 L126.713333,24.5866667 Z" id="Path" fill="#E1251B" fill-rule="nonzero"></path>
                <path d="M102,14.56 C99.4466667,14.24 94,14.56 91.6533333,19.08 L81.9333333,36 L88.26,36 L90.9666667,31.2866667 L94.04,31.2866667 L91.3333333,36 L97.6133333,36 L106.553333,20.4866667 C108.04,17.7466667 106.606667,15.1533333 101.986667,14.5866667 M99.52,21.76 L96.9866667,26.1733333 L93.9066667,26.1733333 L96.6666667,21.3333333 C97.0964896,20.5517038 97.9625764,20.1146875 98.8466667,20.2333333 C99.78,20.32 100.08,20.7933333 99.5133333,21.7533333" id="Shape" fill="#E1251B" fill-rule="nonzero"></path>
                <path d="M140.246667,19.1266667 C135.44,18.8666667 130.913333,22.6733333 128.853333,28.54 C127.373333,32.7333333 128,36.26 132.546667,36.5066667 C137.093333,36.7533333 141.533333,33.8866667 144,26.9333333 C145.48,22.7333333 144.42,19.3466667 140.253333,19.1266667 M138.086667,27.18 C136.653333,29.94 135.68,31.3133333 134.48,31.0733333 C133.6,30.9066667 133.926667,29.66 134.793333,28 C135.993333,25.6733333 137.286667,24 138.366667,24.1666667 C139.446667,24.3333333 138.946667,25.5 138.086667,27.18" id="Shape" fill="#E1251B" fill-rule="nonzero"></path>
                <path d="M192.8,20 C191.160271,19.5835751 189.420428,19.9887099 188.133333,21.0866667 L188.746667,20 L183.413333,20 L174.213333,36 L180.086667,36 L185.613333,26.38 C186,25.7133333 186.526667,24.92 187.313333,25.0866667 C187.587821,25.1214139 187.828828,25.2860999 187.960946,25.5291963 C188.093063,25.7722926 188.100154,26.0641068 187.98,26.3133333 L182.433333,36 L188.26,36 L194.926667,24.3533333 C195.846667,22.66 194.333333,20.4 192.793333,20.02" id="Path" fill="#E1251B" fill-rule="nonzero"></path>
                <polygon id="Path" fill="#E1251B" fill-rule="nonzero" points="167 20.46 170.393333 14.5533333 153.08 14.5533333 150.166667 19.62 158.68 19.62 144.046667 30.2866667 140.746667 35.98 158.093333 35.98 160.993333 30.94 152.846667 30.94"></polygon>
                <path d="M205.14,19.1733333 C200.333333,18.9133333 196.106667,22.7333333 194.04,28.6133333 C192.553333,32.82 192.886667,36.3533333 197.433333,36.6133333 C201.266667,36.8133333 204.66,34.8533333 207.206667,30.16 L201.333333,30.16 C200.533333,31.3933333 199.78,32.16 199.053333,32.0066667 C198.326667,31.8533333 198.6,30.5933333 199.14,29.2466667 L207.666667,29.2466667 C208.011882,28.5186922 208.318965,27.7732389 208.586667,27.0133333 C210.073333,22.8 209.3,19.4066667 205.133333,19.1866667 M202.753333,26.9333333 L200.053333,26.9333333 C201.026667,25.2133333 202.02,24.0666667 202.873333,24.2266667 C203.726667,24.3866667 203.473333,25.4333333 202.753333,26.9333333" id="Shape" fill="#E1251B" fill-rule="nonzero"></path>
                <path d="M173.926667,19.1733333 C169.12,18.9133333 164.593333,22.7333333 162.533333,28.6133333 C161.046667,32.82 161.673333,36.3533333 166.22,36.6133333 C170.766667,36.8733333 175.213333,34 177.673333,27 C179.153333,22.7866667 178.093333,19.3933333 173.926667,19.1733333 M171.753333,27.2466667 C170.326667,30.0133333 169.353333,31.3933333 168.146667,31.1533333 C167.273333,30.98 167.6,29.7333333 168.466667,28.0666667 C169.666667,25.7333333 170.96,24.0666667 172.04,24.2266667 C173.12,24.3866667 172.62,25.56 171.753333,27.2466667" id="Shape" fill="#E1251B" fill-rule="nonzero"></path>
                <path d="M1.7,0.8 L4.36666667,0.8 C5.7,0.8 6.01333333,1.64 5.82,2.57333333 C5.73515065,3.38608313 5.13843166,4.05268813 4.34,4.22666667 L4.34,4.22666667 C5.33333333,4.39333333 5.24666667,5.02666667 5.07333333,5.94 C4.81333333,7.27333333 4.83333333,7.42 5.07333333,7.51333333 L5.07333333,7.6 L3.33333333,7.6 C3.27134203,7.13632556 3.31463667,6.66464188 3.46,6.22 C3.70666667,5.04 3.6,4.79333333 3.09333333,4.79333333 L2.45333333,4.79333333 L1.85333333,7.6 L0.253333333,7.6 L1.7,0.8 Z M2.66666667,3.66666667 L3.16,3.66666667 C3.68128022,3.68102421 4.12834628,3.29741268 4.19333333,2.78 C4.3,2.26666667 4.19333333,1.92666667 3.52666667,1.92666667 L3.06,1.92666667 L2.66666667,3.66666667 Z" id="Shape" fill="#000000" fill-rule="nonzero"></path>
                <polygon id="Path" fill="#000000" fill-rule="nonzero" points="7.16666667 0.8 11.1 0.8 10.8266667 2.09333333 8.49333333 2.09333333 8.2 3.46 10.3933333 3.46 10.12 4.75333333 7.92666667 4.75333333 7.59333333 6.30666667 10.0333333 6.30666667 9.76 7.6 5.72 7.6"></polygon>
                <polygon id="Path" fill="#000000" fill-rule="nonzero" points="11.9266667 0.8 15.86 0.8 15.5866667 2.09333333 13.2533333 2.09333333 12.9666667 3.46 15.1533333 3.46 14.88 4.75333333 12.6666667 4.75333333 12.06 7.6 10.46 7.6"></polygon>
                <path d="M17.4133333,0.8 L19.4133333,0.8 L19.6666667,7.6 L18,7.6 L18,6.30666667 L16.4066667,6.30666667 L15.8933333,7.6 L14.24,7.6 L17.4133333,0.8 Z M18.1266667,2.04 L18.1266667,2.04 L16.9,5.06666667 L18.06,5.06666667 L18.1266667,2.04 Z" id="Shape" fill="#000000" fill-rule="nonzero"></path>
                <path d="M23.8,3.16 C24,2.17333333 24,1.73333333 23.46,1.73333333 C22.7933333,1.73333333 22.6333333,2.34 22.2533333,4.12666667 C21.8266667,6.12666667 21.78,6.66666667 22.4466667,6.66666667 C23.1133333,6.66666667 23.2466667,6 23.48,4.93333333 L25.0266667,4.93333333 L24.9733333,5.17333333 C24.6666667,6.66666667 24,7.73333333 22.04,7.73333333 C20.08,7.73333333 20.1533333,6.2 20.5933333,4.15333333 C20.96,2.40666667 21.4266667,0.666666667 23.6933333,0.666666667 C25.1,0.666666667 25.7466667,1.27333333 25.4066667,2.87333333 L25.3333333,3.16 L23.8,3.16 Z" id="Path" fill="#000000" fill-rule="nonzero"></path>
                <path d="M28.9133333,3.16 C29.1266667,2.17333333 29.1066667,1.73333333 28.5733333,1.73333333 C27.9066667,1.73333333 27.7466667,2.34 27.3666667,4.12666667 C26.94,6.12666667 26.8933333,6.66666667 27.56,6.66666667 C28.2266667,6.66666667 28.36,6 28.5933333,4.93333333 L30.14,4.93333333 L30.0866667,5.17333333 C29.7733333,6.64 29.1333333,7.73333333 27.1533333,7.73333333 C25.1733333,7.73333333 25.2666667,6.2 25.7066667,4.15333333 C26.0733333,2.40666667 26.54,0.666666667 28.8066667,0.666666667 C30.22,0.666666667 30.86,1.27333333 30.52,2.87333333 L30.46,3.16 L28.9133333,3.16 Z" id="Path" fill="#000000" fill-rule="nonzero"></path>
                <polygon id="Path" fill="#000000" fill-rule="nonzero" points="31.7133333 0.8 33.3333333 0.8 31.8666667 7.6 30.2666667 7.6"></polygon>
                <path d="M35.0933333,7.73333333 C32.9933333,7.73333333 33,6.36 33.4533333,4.2 C33.9066667,2.04 34.4933333,0.666666667 36.6,0.666666667 C38.8666667,0.666666667 38.6666667,2.31333333 38.24,4.2 C37.8133333,6.08666667 37.3333333,7.73333333 35.0933333,7.73333333 Z M35.3333333,6.66666667 C36,6.66666667 36.2066667,6.06666667 36.6,4.2 C36.9933333,2.33333333 37.0266667,1.73333333 36.38,1.73333333 C35.7333333,1.73333333 35.5333333,2.33333333 35.1333333,4.2 C34.7333333,6.06666667 34.6666667,6.66666667 35.3333333,6.66666667 Z" id="Shape" fill="#000000" fill-rule="nonzero"></path>
                <polygon id="Path" fill="#000000" fill-rule="nonzero" points="39.8 0.8 41.6333333 0.8 42 5.22 42 5.22 42.9733333 0.8 44.4533333 0.8 43.0066667 7.6 41.2 7.6 40.8 2.93333333 40.8 2.93333333 39.8 7.6 38.3533333 7.6"></polygon>
                <polygon id="Path" fill="#000000" fill-rule="nonzero" points="45.4466667 0.8 49.38 0.8 49.1066667 2.09333333 46.7733333 2.09333333 46.48 3.46 48.6666667 3.46 48.3866667 4.75333333 46.2066667 4.75333333 45.8733333 6.30666667 48.3133333 6.30666667 48.04 7.6 44 7.6"></polygon>
                <path d="M50.5266667,5.52666667 L50.48,5.76 C50.3666667,6.27333333 50.4266667,6.66666667 50.98,6.66666667 C51.4390556,6.66271452 51.8227173,6.31627367 51.8733333,5.86 C52.1866667,4.39333333 49.0933333,5.19333333 49.6333333,2.66666667 C49.8543553,1.4002527 51.0223565,0.524251801 52.3,0.666666667 C53.9,0.666666667 54.3,1.47333333 54.0733333,2.52666667 L54,2.66666667 L52.4866667,2.66666667 C52.5538965,2.43364106 52.5538965,2.18635894 52.4866667,1.95333333 C52.4266667,1.78666667 52.2933333,1.71333333 52.0533333,1.71333333 C51.637588,1.71214273 51.2914413,2.03211024 51.26,2.44666667 C50.96,3.86666667 54.0333333,3.15333333 53.52,5.55333333 C53.1933333,7.09333333 52.1866667,7.71333333 50.74,7.71333333 C49.58,7.71333333 48.58,7.36 48.88,5.94 L48.9733333,5.50666667 L50.5266667,5.52666667 Z" id="Path" fill="#000000" fill-rule="nonzero"></path>
                <polygon id="Path" fill="#000000" fill-rule="nonzero" points="58.18 4.92666667 57.3333333 0.8 59.1066667 0.8 59.3333333 3.33333333 59.3333333 3.33333333 60.6666667 0.8 62.38 0.8 59.78 4.92666667 59.2133333 7.59333333 57.6133333 7.59333333"></polygon>
                <path d="M66.6666667,0.8 L68.6666667,0.8 L68.9133333,7.6 L67.2533333,7.6 L67.2533333,6.30666667 L65.6266667,6.30666667 L65.1133333,7.6 L63.46,7.6 L66.6666667,0.8 Z M67.3333333,2.04 L67.3333333,2.04 L66.12,5.06666667 L67.28,5.06666667 L67.3333333,2.04 Z" id="Shape" fill="#000000" fill-rule="nonzero"></path>
                <path d="M73.02,3.16 C73.2333333,2.17333333 73.2133333,1.73333333 72.68,1.73333333 C72.0133333,1.73333333 71.8533333,2.34 71.4733333,4.12666667 C71.0466667,6.12666667 71,6.66666667 71.6666667,6.66666667 C72.3333333,6.66666667 72.4666667,6 72.7,4.93333333 L74.2466667,4.93333333 L74.1933333,5.17333333 C73.8866667,6.64 73.24,7.73333333 71.26,7.73333333 C69.28,7.73333333 69.3733333,6.2 69.8133333,4.15333333 C70.18,2.40666667 70.6666667,0.666666667 72.9133333,0.666666667 C74.3266667,0.666666667 74.9666667,1.27333333 74.6266667,2.87333333 L74.5666667,3.16 L73.02,3.16 Z" id="Path" fill="#000000" fill-rule="nonzero"></path>
                <path d="M78.14,3.16 C78.3466667,2.17333333 78.3266667,1.73333333 77.7933333,1.73333333 C77.1266667,1.73333333 76.9666667,2.34 76.5866667,4.12666667 C76.16,6.12666667 76.1133333,6.66666667 76.78,6.66666667 C77.4466667,6.66666667 77.58,6 77.82,4.93333333 L79.3333333,4.93333333 L79.28,5.17333333 C78.9733333,6.64 78.3266667,7.73333333 76.3466667,7.73333333 C74.3666667,7.73333333 74.4666667,6.2 74.9,4.15333333 C75.3333333,2.40666667 75.76,0.666666667 78,0.666666667 C79.4133333,0.666666667 80.0533333,1.27333333 79.7133333,2.87333333 L79.6533333,3.16 L78.14,3.16 Z" id="Path" fill="#000000" fill-rule="nonzero"></path>
                <polygon id="Path" fill="#000000" fill-rule="nonzero" points="80.9066667 0.8 84.84 0.8 84.5666667 2.09333333 82.2333333 2.09333333 81.94 3.46 84.1333333 3.46 83.8533333 4.75333333 81.6666667 4.75333333 81.3333333 6.30666667 83.7733333 6.30666667 83.5 7.6 79.46 7.6"></polygon>
                <path d="M86,5.52666667 L85.9466667,5.76 C85.84,6.27333333 85.9,6.66666667 86.4533333,6.66666667 C86.9072759,6.65606833 87.2833762,6.31130971 87.3333333,5.86 C87.6466667,4.39333333 84.5466667,5.19333333 85.0866667,2.66666667 C85.3136994,1.40394887 86.4775551,0.531057104 87.7533333,0.666666667 C89.3533333,0.666666667 89.7533333,1.47333333 89.5266667,2.52666667 L89.4933333,2.68666667 L87.9466667,2.68666667 C88.0165361,2.45402155 88.0165361,2.20597845 87.9466667,1.97333333 C87.8866667,1.80666667 87.7533333,1.73333333 87.5133333,1.73333333 C87.097588,1.73214273 86.7514413,2.05211024 86.72,2.46666667 C86.42,3.88666667 89.4933333,3.17333333 88.98,5.57333333 C88.6533333,7.11333333 87.6466667,7.73333333 86.2,7.73333333 C85.04,7.73333333 84.0333333,7.38 84.34,5.96 L84.4333333,5.52666667 L86,5.52666667 Z" id="Path" fill="#000000" fill-rule="nonzero"></path>
                <path d="M91.5466667,7.73333333 C89.44,7.73333333 89.4466667,6.36 89.9066667,4.2 C90.3666667,2.04 90.9466667,0.666666667 93.0466667,0.666666667 C95.3133333,0.666666667 95.0866667,2.31333333 94.6866667,4.2 C94.2866667,6.08666667 93.8133333,7.73333333 91.5466667,7.73333333 Z M91.76,6.66666667 C92.4266667,6.66666667 92.6333333,6.06666667 93.0333333,4.2 C93.4333333,2.33333333 93.46,1.73333333 92.8133333,1.73333333 C92.1666667,1.73333333 91.96,2.33333333 91.5666667,4.2 C91.1733333,6.06666667 91.1333333,6.66666667 91.76,6.66666667 Z" id="Shape" fill="#000000" fill-rule="nonzero"></path>
                <path d="M96.2466667,0.8 L98.9133333,0.8 C100.246667,0.8 100.566667,1.64 100.366667,2.57333333 C100.28013,3.38998581 99.6769962,4.05774068 98.8733333,4.22666667 L98.8733333,4.22666667 C99.86,4.37333333 99.78,5.00666667 99.6066667,5.92 C99.3533333,7.25333333 99.3733333,7.4 99.6066667,7.49333333 L99.6066667,7.58 L97.8866667,7.58 C97.818244,7.1240192 97.8570484,6.65836628 98,6.22 C98.2533333,5.04 98.14,4.79333333 97.6333333,4.79333333 L97.0266667,4.79333333 L96.4266667,7.6 L94.8266667,7.6 L96.2466667,0.8 Z M97.24,3.66666749 L97.7333333,3.66666749 C98.2444933,3.66731288 98.6761054,3.28715128 98.74,2.78 C98.8533333,2.26666667 98.74,1.92666667 98.0733333,1.92666667 L97.5866667,1.92666667 L97.24,3.66666749 Z" id="Shape" fill="#000000" fill-rule="nonzero"></path>
                <polygon id="Path" fill="#000000" fill-rule="nonzero" points="101.746667 0.8 103.333333 0.8 101.886667 7.6 100.286667 7.6"></polygon>
                <path d="M105.126667,7.73333333 C103.02,7.73333333 103.026667,6.36 103.486667,4.2 C103.946667,2.04 104.526667,0.666666667 106.626667,0.666666667 C108.893333,0.666666667 108.666667,2.31333333 108.266667,4.2 C107.866667,6.08666667 107.393333,7.73333333 105.126667,7.73333333 Z M105.333333,6.66666667 C106,6.66666667 106.2,6.06666667 106.6,4.2 C107,2.33333333 107.026667,1.73333333 106.38,1.73333333 C105.733333,1.73333333 105.526667,2.33333333 105.133333,4.2 C104.74,6.06666667 104.713333,6.66666667 105.333333,6.66666667 Z" id="Shape" fill="#000000" fill-rule="nonzero"></path>
                <path d="M110.146667,5.52666667 L110.1,5.76 C109.986667,6.27333333 110.046667,6.66666667 110.6,6.66666667 C111.059317,6.66017366 111.443458,6.31586927 111.5,5.86 C111.806667,4.39333333 108.713333,5.19333333 109.253333,2.66666667 C109.477376,1.40210752 110.643291,0.527670985 111.92,0.666666667 C113.52,0.666666667 113.92,1.47333333 113.693333,2.52666667 L113.66,2.68666667 L112.12,2.68666667 C112.18723,2.45364106 112.18723,2.20635894 112.12,1.97333333 C112.06,1.80666667 111.926667,1.73333333 111.686667,1.73333333 C111.270921,1.73214273 110.924775,2.05211024 110.893333,2.46666667 C110.593333,3.88666667 113.666667,3.17333333 113.16,5.57333333 C112.826667,7.11333333 111.826667,7.73333333 110.373333,7.73333333 C109.213333,7.73333333 108.213333,7.38 108.513333,5.96 L108.606667,5.52666667 L110.146667,5.52666667 Z" id="Path" fill="#000000" fill-rule="nonzero"></path>
                <path d="M210.046667,18.1 C210.973705,18.0853337 211.715099,17.3251648 211.706581,16.3980493 C211.698064,15.4709338 210.942829,14.7245147 210.015677,14.7268776 C209.088526,14.7292517 208.337114,15.4795197 208.333319,16.4066667 C208.331486,16.8598122 208.512054,17.2946408 208.834355,17.613179 C209.156655,17.9317173 209.593574,18.1071682 210.046667,18.1 M208.666667,16.4066667 C208.688589,15.6583456 209.308488,15.0669429 210.057012,15.0802347 C210.805536,15.0935264 211.404047,15.7065647 211.399414,16.4551923 C211.394728,17.20382 210.788632,17.8093604 210.04,17.8133333 C209.666405,17.8251228 209.305015,17.6795541 209.0439,17.4121008 C208.782784,17.1446475 208.645923,16.7798721 208.666667,16.4066667 M209.673333,16.54 L210,16.54 L210.52,17.3866667 L210.846667,17.3866667 L210.293333,16.5266667 C210.433078,16.5288422 210.567355,16.4724293 210.663616,16.371102 C210.759877,16.2697747 210.809334,16.1327832 210.8,15.9933333 C210.8,15.6066667 210.573333,15.44 210.133333,15.44 L209.393333,15.44 L209.393333,17.3866667 L209.68,17.3866667 L209.673333,16.54 Z M209.673333,16.2933333 L209.673333,15.6933333 L210.08,15.6933333 C210.286667,15.6933333 210.506667,15.7333333 210.506667,15.98 C210.506667,16.2266667 210.28,16.2933333 210.026667,16.2933333 L209.673333,16.2933333 Z" id="Shape" fill="#000000" fill-rule="nonzero"></path>
            </g>
        </g>
    </g>
</svg>