<svg width="22" height="19" viewBox="0 0 22 19" fill="none" xmlns="http://www.w3.org/2000/svg">
<path fill-rule="evenodd" clip-rule="evenodd" d="M18.276 0.928169L21.026 8.2615C21.1305 8.54292 21.092 8.85825 20.9206 9.10484C20.7491 9.35234 20.4677 9.49992 20.1671 9.49992H19.2504V17.7499C19.2504 18.2559 18.8406 18.6666 18.3337 18.6666H3.66706C3.16015 18.6666 2.7504 18.2559 2.7504 17.7499V9.49992H1.83373C1.53306 9.49992 1.25165 9.35234 1.07931 9.10484C0.908815 8.85825 0.870314 8.54292 0.974814 8.2615L3.72481 0.928169C3.85956 0.570669 4.20148 0.333252 4.58373 0.333252H17.4171C17.7993 0.333252 18.1412 0.570669 18.276 0.928169ZM16.3006 7.66659H18.8443L16.7818 2.16659H14.9256L16.3006 7.66659ZM8.96631 2.16659L7.59131 7.66659H10.0837V2.16659H8.96631ZM13.0345 2.16659H11.9171V7.66659H14.4095L13.0345 2.16659ZM7.07523 2.16659H5.21898L3.15648 7.66659H5.70023L7.07523 2.16659ZM12.8337 12.2499V16.8333H14.6671V12.2499H12.8337ZM16.5004 16.8333H17.4171V9.49992H4.58373V16.8333H11.0004V11.3333C11.0004 10.8273 11.4101 10.4166 11.9171 10.4166H15.5837C16.0906 10.4166 16.5004 10.8273 16.5004 11.3333V16.8333ZM9.16705 14.9999H6.41705C5.91013 14.9999 5.50038 14.5893 5.50038 14.0833V11.3333C5.50038 10.8273 5.91013 10.4166 6.41705 10.4166H9.16705C9.67397 10.4166 10.0837 10.8273 10.0837 11.3333V14.0833C10.0837 14.5893 9.67397 14.9999 9.16705 14.9999Z" fill="#5B5C5D"/>
</svg>
