<svg width="33" height="22" viewBox="0 0 33 22" fill="none" xmlns="http://www.w3.org/2000/svg">
<g clip-path="url(#clip0_3041_69031)">
<path d="M31 0.25H2C1.0335 0.25 0.25 1.0335 0.25 2V20C0.25 20.9665 1.0335 21.75 2 21.75H31C31.9665 21.75 32.75 20.9665 32.75 20V2C32.75 1.0335 31.9665 0.25 31 0.25Z" stroke="#A9AAA8" stroke-width="0.5"/>
<path d="M2 20H31V2H2V20Z" fill="#ED1C23"/>
<path d="M10.7059 14.8784L11.1959 13.8716L11.6937 14.8784H10.7059ZM10.8169 13.2365L9.40956 15.9541H10.1837L10.4834 15.3382H11.929L12.2436 15.9541H13.0378L11.5916 13.2365H10.8169ZM14.7004 14.3881H14.161V13.6964H14.7298C15.0245 13.6964 15.2026 13.6996 15.262 13.706C15.3796 13.7204 15.4706 13.7562 15.5361 13.8128C15.601 13.8694 15.6332 13.9431 15.6332 14.035C15.6332 14.1167 15.6088 14.1851 15.5594 14.2396C15.51 14.2941 15.4423 14.332 15.3552 14.3549C15.2681 14.3768 15.0494 14.3881 14.7004 14.3881ZM15.8241 14.9841C15.7215 14.9013 15.5916 14.8255 15.4346 14.7566C15.7514 14.7219 15.9895 14.6386 16.1488 14.505C16.308 14.3726 16.3874 14.2038 16.3874 13.9998C16.3874 13.8385 16.3347 13.6958 16.2292 13.5709C16.1243 13.4464 15.9845 13.3588 15.8086 13.3102C15.6338 13.2611 15.3535 13.2365 14.9667 13.2365H13.4301V15.9541H14.161V14.8218H14.3091C14.4767 14.8218 14.5994 14.8314 14.6771 14.8517C14.7542 14.872 14.8274 14.9099 14.8968 14.9644C14.9656 15.0188 15.0944 15.1513 15.2825 15.3612L15.8064 15.9541H16.6798L16.2381 15.4248C16.0644 15.2138 15.9262 15.0664 15.8241 14.9841ZM21.4601 14.7571H23.272V14.2967H21.4601V13.6964H23.4063V13.2365H20.7292V15.9541H23.4773V15.4942H21.4601V14.7571ZM23.8436 13.2365V13.6964H24.9179V15.9541H25.6482V13.6964H26.7143V13.2365H23.8436ZM8.13985 15.3927C8.00056 15.4857 7.83408 15.5321 7.64041 15.5321C7.37792 15.5321 7.16427 15.4589 7.00056 15.3131C6.8363 15.1673 6.75472 14.9227 6.75472 14.5787C6.75472 14.2545 6.83796 14.0201 7.00389 13.8753C7.17037 13.7311 7.3868 13.6585 7.65372 13.6585C7.84629 13.6585 8.01111 13.6991 8.14596 13.7813C8.28081 13.863 8.37015 13.9736 8.41233 14.1146L9.13542 13.9859C9.05329 13.768 8.93009 13.6013 8.76527 13.4854C8.49002 13.2894 8.13097 13.1911 7.6898 13.1911C7.18424 13.1911 6.77581 13.3161 6.4656 13.5661C6.15483 13.8166 6 14.1675 6 14.6193C6 15.0471 6.15483 15.3836 6.46393 15.6299C6.77248 15.8761 7.16649 16 7.64596 16C8.03441 16 8.35406 15.9268 8.606 15.7821C8.8585 15.6379 9.03886 15.4162 9.14707 15.1182L8.44063 14.9547C8.37959 15.1534 8.2797 15.2998 8.13985 15.3927ZM19.2753 15.0594L17.7875 13.2365H17.08V15.9541H17.7553V14.1712L19.2209 15.9541H19.9507V13.2365H19.2753V15.0594ZM16.3014 6.26477C19.8735 6.26477 22.8336 7.57922 23.4257 9.30546C23.4956 9.09983 23.54 8.88939 23.54 8.67308C23.54 6.64453 20.2997 5 16.3014 5C12.303 5 9.06216 6.64453 9.06216 8.67308C9.06216 8.88939 9.10601 9.09983 9.17648 9.30546C9.7686 7.57922 12.7292 6.26477 16.3014 6.26477ZM16.3014 8.45035C19.8735 8.45035 22.8336 9.7648 23.4257 11.4916C23.4956 11.2865 23.54 11.0755 23.54 10.8597C23.54 8.83064 20.2997 7.18611 16.3014 7.18611C12.303 7.18611 9.06216 8.83064 9.06216 10.8597C9.06216 11.0755 9.10601 11.2865 9.17648 11.4916C9.7686 9.7648 12.7292 8.45035 16.3014 8.45035Z" fill="white"/>
</g>
<defs>
<clipPath id="clip0_3041_69031">
<rect width="33" height="22" fill="white"/>
</clipPath>
</defs>
</svg>
