<svg width="42" height="25" viewBox="0 0 42 25" fill="none" xmlns="http://www.w3.org/2000/svg">
<rect x="0.5" y="0.5" width="41" height="24" rx="1.5" fill="white"/>
<rect x="0.5" y="0.5" width="41" height="24" rx="1.5" stroke="#D6D6D6"/>
<path d="M24.0161 4.6819C23.1043 4.56822 21.1668 4.6819 20.3159 6.29865L16.8467 12.3372H19.1085L20.0766 10.6511H21.1764L20.207 12.3372H22.4509L25.6473 6.7905C26.1798 5.81279 25.6676 4.88893 24.0161 4.6819ZM23.133 7.24644L22.2283 8.8237H21.1261L22.117 7.09446C22.2474 6.86469 22.4999 6.66245 22.8972 6.70075C23.2311 6.73306 23.3388 6.90419 23.133 7.24644Z" fill="#D52B1E"/>
<path d="M32.6629 6.76934L33.8781 4.6499H27.6687L26.624 6.47033H29.6788L24.4277 10.2949L23.2461 12.3375H29.4663L30.5062 10.5291H27.587L32.6629 6.76934Z" fill="#D52B1E"/>
<path d="M22.1169 7.09457C22.2473 6.8648 22.4998 6.66256 22.8971 6.70085C23.231 6.73316 23.3387 6.90429 23.1329 7.24655L22.2282 8.82381H21.126L22.1169 7.09457Z" fill="white"/>
<path fill-rule="evenodd" clip-rule="evenodd" d="M29.3359 9.95193L33.1032 7.16139L34.8742 4.07275H27.3341L26.3898 5.71831C26.3448 5.50952 26.2576 5.3059 26.122 5.11412C25.7208 4.54652 24.9907 4.22241 24.0879 4.10923L24.0875 4.10919C23.5716 4.04487 22.7742 4.04392 21.9737 4.28962C21.4666 4.44527 20.9463 4.70455 20.5017 5.11685L20.9237 4.38511H12.2401L7.26953 12.9143H15.8494L15.8492 12.9146H22.2451L22.245 12.9149H29.7999L31.5037 9.95193H29.3359ZM24.9066 9.23187L27.9055 7.04769H26.1644C26.161 7.05404 26.1576 7.06039 26.1541 7.06672L26.1508 7.07281L24.9066 9.23187ZM24.4274 10.295L29.6785 6.47044H26.6237L27.6684 4.65001H33.8778L32.6626 6.76944L27.5867 10.5292H30.5059L29.466 12.3376H23.2458L24.4274 10.295ZM20.3158 6.29876L16.8466 12.3373H19.1084L20.0765 10.6512H21.1763L20.2069 12.3373H22.4508L25.6472 6.7906C26.1797 5.81289 25.6675 4.88904 24.0161 4.68201C23.1042 4.56832 21.1667 4.68201 20.3158 6.29876Z" fill="white"/>
<path d="M12.7034 4.63037L8.25684 12.3373H10.6013L15.0479 4.63037H12.7034ZM19.7367 4.63037L15.2901 12.3373H15.8351L20.2817 4.63037H19.7367ZM18.7678 4.63037H17.8421L13.3955 12.3373H14.3212L15.9216 9.5654L18.7678 4.63037ZM15.5929 4.63037L11.1463 12.3373H12.6342L17.0895 4.63037H15.5929Z" fill="#F37F00"/>
<path d="M12.1753 19.9209H11.2793L10.2573 17.9749H10.0893H9.1373V19.9209H8.3253V14.9509H10.0893C11.4006 14.9509 12.0563 15.4316 12.0563 16.3929V16.5259C12.0563 17.2259 11.7133 17.6716 11.0273 17.8629L12.1753 19.9209ZM9.9843 17.3239C10.297 17.3239 10.542 17.2959 10.7193 17.2399C10.9013 17.1839 11.0296 17.0976 11.1043 16.9809C11.1836 16.8596 11.2233 16.6986 11.2233 16.4979V16.4209C11.2233 16.2202 11.1836 16.0616 11.1043 15.9449C11.0296 15.8236 10.9013 15.7349 10.7193 15.6789C10.542 15.6229 10.297 15.5949 9.9843 15.5949H9.1373V17.3239H9.9843ZM13.7791 17.6949V19.2699H16.3061V19.9209H12.9601V14.9509H16.2151V15.5949H13.7791V17.0509H15.9911V17.6949H13.7791ZM18.9106 20.0119C18.1873 20.0119 17.6553 19.8042 17.3146 19.3889C16.9739 18.9689 16.8036 18.3482 16.8036 17.5269V17.3449C16.8036 15.6882 17.5106 14.8599 18.9246 14.8599C19.5593 14.8599 20.0329 15.0046 20.3456 15.2939C20.6629 15.5832 20.8216 15.9869 20.8216 16.5049V16.5609H19.9886V16.5049C19.9886 16.1596 19.8953 15.9076 19.7086 15.7489C19.5266 15.5856 19.2513 15.5039 18.8826 15.5039C18.5746 15.5039 18.3296 15.5716 18.1476 15.7069C17.9656 15.8376 17.8349 16.0406 17.7556 16.3159C17.6763 16.5912 17.6366 16.9529 17.6366 17.4009V17.4709C17.6366 17.9282 17.6763 18.2946 17.7556 18.5699C17.8396 18.8452 17.9726 19.0459 18.1546 19.1719C18.3413 19.2979 18.5933 19.3609 18.9106 19.3609C19.3213 19.3609 19.6223 19.2652 19.8136 19.0739C20.0049 18.8826 20.1006 18.5652 20.1006 18.1219V17.9679H18.9526V17.3169H20.8706V18.0729C20.8706 18.7076 20.7073 19.1906 20.3806 19.5219C20.0539 19.8486 19.5639 20.0119 18.9106 20.0119ZM25.6576 19.9209H24.7896L24.3976 18.6959H22.4866L22.0946 19.9209H21.2546L22.9486 14.9509H23.9496L25.6576 19.9209ZM23.4456 15.7139L22.6756 18.1009H24.2086L23.4456 15.7139ZM29.4825 19.9209H26.2765V14.9509H27.0885V19.2699H29.4825V19.9209ZM31.8295 20.0119C31.1155 20.0119 30.5929 19.8019 30.2615 19.3819C29.9302 18.9572 29.7645 18.3389 29.7645 17.5269V17.3449C29.7645 16.5329 29.9302 15.9169 30.2615 15.4969C30.5929 15.0722 31.1155 14.8599 31.8295 14.8599C32.5435 14.8599 33.0662 15.0722 33.3975 15.4969C33.7289 15.9169 33.8945 16.5329 33.8945 17.3449V17.5269C33.8945 18.3389 33.7289 18.9572 33.3975 19.3819C33.0662 19.8019 32.5435 20.0119 31.8295 20.0119ZM31.8295 19.3609C32.1375 19.3609 32.3802 19.2956 32.5575 19.1649C32.7395 19.0342 32.8702 18.8336 32.9495 18.5629C33.0289 18.2876 33.0685 17.9236 33.0685 17.4709V17.4009C33.0685 16.9482 33.0289 16.5842 32.9495 16.3089C32.8702 16.0336 32.7395 15.8306 32.5575 15.6999C32.3802 15.5692 32.1375 15.5039 31.8295 15.5039C31.5215 15.5039 31.2765 15.5692 31.0945 15.6999C30.9172 15.8306 30.7889 16.0336 30.7095 16.3089C30.6302 16.5842 30.5905 16.9482 30.5905 17.4009V17.4709C30.5905 17.9236 30.6302 18.2876 30.7095 18.5629C30.7889 18.8336 30.9172 19.0342 31.0945 19.1649C31.2765 19.2956 31.5215 19.3609 31.8295 19.3609Z" fill="#484848"/>
</svg>
