<svg width="33" height="22" viewBox="0 0 33 22" fill="none" xmlns="http://www.w3.org/2000/svg">
<g clip-path="url(#clip0_2298_67361)">
<path d="M31 0.25H2C1.0335 0.25 0.25 1.0335 0.25 2V20C0.25 20.9665 1.0335 21.75 2 21.75H31C31.9665 21.75 32.75 20.9665 32.75 20V2C32.75 1.0335 31.9665 0.25 31 0.25Z" fill="white"/>
<path d="M18.9338 6.62665H14.0665V15.3733H18.9338V6.62665Z" fill="#FF5F00"/>
<path d="M14.3755 11C14.3748 10.1576 14.5657 9.32612 14.9338 8.56843C15.3018 7.81075 15.8375 7.14674 16.5001 6.62667C15.6795 5.98166 14.694 5.58053 13.6562 5.46915C12.6184 5.35776 11.5702 5.5406 10.6315 5.99677C9.69267 6.45294 8.90116 7.16405 8.34741 8.04879C7.79366 8.93354 7.5 9.95623 7.5 11C7.5 12.0437 7.79366 13.0664 8.34741 13.9512C8.90116 14.8359 9.69267 15.547 10.6315 16.0032C11.5702 16.4594 12.6184 16.6422 13.6562 16.5308C14.694 16.4194 15.6795 16.0183 16.5001 15.3733C15.8375 14.8532 15.3019 14.1892 14.9338 13.4315C14.5657 12.6738 14.3748 11.8423 14.3755 11Z" fill="#EB001B"/>
<path d="M25.5 11C25.5 12.0437 25.2064 13.0664 24.6527 13.9512C24.099 14.8359 23.3075 15.547 22.3687 16.0032C21.4299 16.4594 20.3818 16.6422 19.344 16.5308C18.3062 16.4194 17.3207 16.0183 16.5001 15.3733C17.1622 14.8527 17.6974 14.1886 18.0654 13.431C18.4335 12.6735 18.6247 11.8422 18.6247 11C18.6247 10.1578 18.4335 9.32651 18.0654 8.56895C17.6974 7.81138 17.1622 7.14726 16.5001 6.62666C17.3207 5.98165 18.3062 5.58053 19.344 5.46915C20.3818 5.35776 21.4299 5.54061 22.3687 5.99678C23.3075 6.45296 24.099 7.16406 24.6527 8.04881C25.2064 8.93356 25.5 9.95625 25.5 11Z" fill="#F79E1B"/>
<path d="M24.9691 14.4469V14.2679H25.0413V14.2314H24.8574V14.2679H24.9297V14.4469H24.9691ZM25.3261 14.4469V14.231H25.2698L25.2049 14.3795L25.1401 14.231H25.0837V14.4469H25.1235V14.2841L25.1843 14.4245H25.2255L25.2863 14.2837V14.4469H25.3261Z" fill="#F79E1B"/>
<path d="M31 0.25H2C1.0335 0.25 0.25 1.0335 0.25 2V20C0.25 20.9665 1.0335 21.75 2 21.75H31C31.9665 21.75 32.75 20.9665 32.75 20V2C32.75 1.0335 31.9665 0.25 31 0.25Z" stroke="#A9AAA8" stroke-width="0.5"/>
</g>
<defs>
<clipPath id="clip0_2298_67361">
<rect width="33" height="22" fill="white"/>
</clipPath>
</defs>
</svg>
