<?xml version="1.0" encoding="UTF-8"?>
<svg width="19px" height="18px" viewBox="0 0 19 18" version="1.1" xmlns="http://www.w3.org/2000/svg" xmlns:xlink="http://www.w3.org/1999/xlink">
    <!-- Generator: Sketch 63.1 (92452) - https://sketch.com -->
    <title>Instagram</title>
    <desc>Created with Sketch.</desc>
    <g id="Symbols" stroke="none" stroke-width="1" fill="none" fill-rule="evenodd">
        <g id="_Elements/Social-Icons/Social-Icons" transform="translate(-186.000000, 0.000000)" fill="#FFFFFF">
            <g id="Group-2">
                <path d="M196.263066,0.000652719374 C197.830641,0.00381240596 198.175054,0.0169323319 198.98734,0.0539946113 C199.945315,0.097688307 200.599577,0.249848119 201.172061,0.472353709 C201.763909,0.70232617 202.265832,1.01007555 202.76622,1.51042732 C203.266572,2.01081481 203.574321,2.51273855 203.804329,3.10458627 C204.026799,3.67707014 204.178959,4.33133232 204.222653,5.28930678 C204.263084,6.17543768 204.275022,6.50476046 204.27662,8.47272653 L204.27662,9.52751977 C204.275022,11.4954577 204.263084,11.8247805 204.222653,12.7109114 C204.178959,13.6688859 204.026799,14.3231481 203.804329,14.8956319 C203.574321,15.4874797 203.266572,15.9894034 202.76622,16.4897909 C202.265832,16.9901427 201.763909,17.297892 201.172061,17.5279002 C200.599577,17.7503701 199.945315,17.9025299 198.98734,17.9462236 C198.101209,17.9866552 197.771887,17.9985934 195.803949,18.0001908 L194.749156,18.0001908 C192.781189,17.9985934 192.451867,17.9866552 191.565736,17.9462236 C190.607761,17.9025299 189.953499,17.7503701 189.381015,17.5279002 C188.789168,17.297892 188.287244,16.9901427 187.786856,16.4897909 C187.286505,15.9894034 186.978755,15.4874797 186.748783,14.8956319 C186.526277,14.3231481 186.374117,13.6688859 186.330424,12.7109114 C186.293361,11.8986248 186.280241,11.5542116 186.277082,9.98663695 L186.277082,8.0136029 C186.280241,6.44600661 186.293361,6.10159344 186.330424,5.28930678 C186.374117,4.33133232 186.526277,3.67707014 186.748783,3.10458627 C186.978755,2.51273855 187.286505,2.01081481 187.786856,1.51042732 C188.287244,1.01007555 188.789168,0.70232617 189.381015,0.472353709 C189.953499,0.249848119 190.607761,0.097688307 191.565736,0.0539946113 C192.378022,0.0169323319 192.722436,0.00381240596 194.290032,0.000652719374 Z M196.054981,1.62194122 L194.498119,1.62194122 C192.795479,1.62419641 192.474812,1.63587931 191.639654,1.67398393 C190.762136,1.71399778 190.285578,1.86061996 189.968433,1.98387691 C189.548323,2.14714771 189.248505,2.34217951 188.933575,2.65714567 C188.618608,2.97207611 188.423577,3.27189418 188.260306,3.69200388 C188.137049,4.00914937 187.990427,4.48570719 187.950413,5.36322522 C187.912308,6.19838288 187.900625,6.51905022 187.89837,8.22169011 L187.89837,9.77855244 C187.900625,11.481168 187.912308,11.8018353 187.950413,12.636993 C187.990427,13.514511 188.137049,13.9910688 188.260306,14.3082143 C188.423577,14.728324 188.618644,15.0281421 188.933575,15.3430725 C189.248505,15.6580387 189.548323,15.8530705 189.968433,16.0163413 C190.285578,16.1395982 190.762136,16.2862204 191.639654,16.3262343 C192.474718,16.3643389 192.795318,16.3760218 194.498065,16.378277 L196.055037,16.378277 C197.757765,16.3760218 198.07839,16.3643389 198.913422,16.3262343 C199.79094,16.2862204 200.267498,16.1395982 200.584643,16.0163413 C201.004753,15.8530705 201.304571,15.6580387 201.619502,15.3430725 C201.934468,15.0281421 202.129499,14.728324 202.29277,14.3082143 C202.416027,13.9910688 202.562649,13.514511 202.602663,12.636993 C202.640768,11.8018353 202.652451,11.481168 202.654706,9.77855244 L202.654706,8.22169011 C202.652451,6.51905022 202.640768,6.19838288 202.602663,5.36322522 C202.562649,4.48570719 202.416027,4.00914937 202.29277,3.69200388 C202.129499,3.27189418 201.934468,2.97207611 201.619502,2.65714567 C201.304571,2.34217951 201.004753,2.14714771 200.584643,1.98387691 C200.267498,1.86061996 199.79094,1.71399778 198.913422,1.67398393 C198.078264,1.63587931 197.757597,1.62419641 196.054981,1.62194122 Z M195.279396,4.49571065 C197.765536,4.49571065 199.780937,6.51111091 199.780937,8.99728623 C199.780937,11.4834268 197.765536,13.498827 195.279396,13.498827 C192.79322,13.498827 190.77782,11.4834268 190.77782,8.99728623 C190.77782,6.51111091 192.79322,4.49571065 195.279396,4.49571065 Z M195.279396,6.07520292 C193.665558,6.07520292 192.357312,7.38344885 192.357312,8.99728623 C192.357312,10.6110888 193.665558,11.9193347 195.279396,11.9193347 C196.893198,11.9193347 198.201444,10.6110888 198.201444,8.99728623 C198.201444,7.38344885 196.893198,6.07520292 195.279396,6.07520292 Z M199.780918,3.37032111 C200.402459,3.37032111 200.906326,3.87418798 200.906326,4.49572926 C200.906326,5.11727055 200.402459,5.6211002 199.780918,5.6211002 C199.159414,5.6211002 198.655547,5.11727055 198.655547,4.49572926 C198.655547,3.87418798 199.159414,3.37032111 199.780918,3.37032111 Z" id="Instagram"></path>
            </g>
        </g>
    </g>
</svg>