<?xml version="1.0" encoding="UTF-8"?>
<svg width="27px" height="18px" viewBox="0 0 27 18" version="1.1" xmlns="http://www.w3.org/2000/svg" xmlns:xlink="http://www.w3.org/1999/xlink">
    <!-- Generator: Sketch 63.1 (92452) - https://sketch.com -->
    <title>Youtube</title>
    <desc>Created with Sketch.</desc>
    <g id="Symbols" stroke="none" stroke-width="1" fill="none" fill-rule="evenodd">
        <g id="_Elements/Social-Icons/Social-Icons" transform="translate(-120.000000, 0.000000)" fill="#FFFFFF">
            <g id="Group-2">
                <path d="M130.889332,12.7987258 L130.889332,5.20127419 L137.566752,9.00014516 L130.889332,12.7987258 Z M145.742526,2.81075806 C145.448719,1.70433871 144.582977,0.833080645 143.483816,0.537387097 C141.491477,0 133.502235,0 133.502235,0 C133.502235,0 125.512993,0 123.520655,0.537387097 C122.421493,0.833080645 121.555752,1.70433871 121.261945,2.81075806 C120.728042,4.81601613 120.728042,9 120.728042,9 C120.728042,9 120.728042,13.1838387 121.261945,15.1892419 C121.555752,16.2956613 122.421493,17.1669194 123.520655,17.4627581 C125.512993,18 133.502235,18 133.502235,18 C133.502235,18 141.491477,18 143.483816,17.4627581 C144.582977,17.1669194 145.448719,16.2956613 145.742526,15.1892419 C146.276429,13.1838387 146.276429,9 146.276429,9 C146.276429,9 146.276429,4.81601613 145.742526,2.81075806 L145.742526,2.81075806 Z" id="Youtube"></path>
            </g>
        </g>
    </g>
</svg>