<svg width="33" height="22" viewBox="0 0 33 22" fill="none" xmlns="http://www.w3.org/2000/svg">
<g clip-path="url(#clip0_2298_67405)">
<path d="M31 0.25H2C1.0335 0.25 0.25 1.0335 0.25 2V20C0.25 20.9665 1.0335 21.75 2 21.75H31C31.9665 21.75 32.75 20.9665 32.75 20V2C32.75 1.0335 31.9665 0.25 31 0.25Z" fill="white"/>
<path d="M13.8528 7.57343L10.9724 14.4452H9.0932L7.67576 8.96084C7.58971 8.62304 7.51534 8.49929 7.25317 8.35697C6.82588 8.12517 6.12026 7.90768 5.5 7.77258L5.54159 7.57343H8.56667C8.95226 7.57343 9.29888 7.83011 9.38642 8.27413L10.135 12.2503L11.985 7.57343H13.8528ZM21.2159 12.2019C21.2234 10.3881 18.7078 10.2883 18.7251 9.47797C18.7305 9.23138 18.9657 8.96921 19.4792 8.90229C19.7339 8.86895 20.4358 8.84351 21.2324 9.20984L21.5446 7.75253C21.1163 7.59635 20.5659 7.44739 19.8812 7.44739C18.124 7.44739 16.8874 8.3815 16.8769 9.71906C16.8655 10.7084 17.7592 11.2605 18.4331 11.5892C19.126 11.9259 19.3585 12.1422 19.3559 12.4434C19.351 12.9043 18.8032 13.108 18.2914 13.1159C17.3976 13.1296 16.8793 12.8741 16.466 12.6819L16.1438 14.1875C16.5592 14.378 17.3259 14.5443 18.1208 14.5527C19.9885 14.5527 21.2101 13.6301 21.2159 12.2015V12.2019ZM25.8559 14.4452H27.5L26.0649 7.57343H24.5473C24.3853 7.57204 24.2265 7.61935 24.0917 7.70925C23.9568 7.79915 23.8521 7.92748 23.7911 8.07761L21.1232 14.4452H22.9899L23.3605 13.4187H25.6407L25.8559 14.4452ZM23.8723 12.0102L24.808 9.42973L25.3466 12.01L23.8723 12.0102ZM16.3928 7.57343L14.9228 14.4452H13.1451L14.6157 7.57343H16.3928Z" fill="#1434CB"/>
<path d="M31 0.25H2C1.0335 0.25 0.25 1.0335 0.25 2V20C0.25 20.9665 1.0335 21.75 2 21.75H31C31.9665 21.75 32.75 20.9665 32.75 20V2C32.75 1.0335 31.9665 0.25 31 0.25Z" stroke="#A9AAA8" stroke-width="0.5"/>
</g>
<defs>
<clipPath id="clip0_2298_67405">
<rect width="33" height="22" fill="white"/>
</clipPath>
</defs>
</svg>
